<svg id="Layer_1" fill="orange" xmlns="http://www.w3.org/2000/svg" viewBox="0 0 25 25"><path fill="orange" d="M11.56,24.13s-.06-.01-.09-.02c-.26-.01-.52-.03-.79-.04-.09,0-.18-.02-.27-.03.13-.02.26-.05.39-.07.64-.11,1.27-.29,1.88-.52,1.35-.49,2.59-1.18,3.71-2.09,1.14-.92,2.1-2,2.86-3.25.31-.51.58-1.03.76-1.6.04-.12.06-.24.08-.36v-.1h-.02s-.05.06-.07.09c-.13.24-.26.48-.39.71-.46.83-.99,1.61-1.6,2.33-1.04,1.22-2.28,2.18-3.72,2.88-1.03.5-2.08.95-3.17,1.28-.46.14-.93.26-1.4.34-.19.03-.39.05-.58.07-.18.01-.36-.03-.53-.09-.28-.09-.56-.19-.83-.29v-.02c.23-.03.47-.06.7-.1.4-.08.8-.15,1.2-.24.99-.24,1.94-.58,2.85-1.02.86-.42,1.66-.93,2.39-1.55,1.61-1.36,2.73-3.05,3.34-5.07.13-.42.22-.85.29-1.28.02-.12.03-.25.04-.37-.09,0-.18.02-.27.02-.62.04-1.17-.15-1.64-.56-.48-.41-.76-.94-.96-1.52-.07-.22-.14-.44-.17-.67-.03-.19-.02-.38,0-.57.02-.35.11-.69.24-1.02.09-.23.21-.45.36-.64h0c.16-.2.27-.23.51-.16.14.04.29.08.43.11.22.04.4-.06.53-.23.17-.22.25-.47.31-.73.1-.41.12-.83.1-1.25-.03-.48-.11-.95-.27-1.41-.1-.29-.27-.55-.44-.8-.45-.68-.95-1.32-1.44-1.97-.17-.23-.35-.46-.52-.69-.11-.14-.13-.31-.14-.47,0-.07,0-.13.01-.2s.04-.08.11-.06c.54.16,1.06.38,1.57.63.95.46,1.84,1.02,2.66,1.68,1.51,1.22,2.7,2.69,3.46,4.48.27.64.48,1.3.63,1.98v.05c-.88-.46-1.42-1.17-1.64-2.14-.03.18-.11.61.05,1.06-.11-.03-.22-.05-.32-.08-.56-.15-.92-.53-1.15-1.05-.1-.23-.17-.46-.23-.71-.06.26-.07.51-.02.78-.7-.19-1.18-.59-1.41-1.28h-.02v.06c.01.38.11.73.35,1.02.27.32.61.53,1.03.59h0c.14-.03.21.05.28.15.43.61,1.03.98,1.74,1.15.05.01.1.04.13.08.38.42.79.78,1.28,1.06.03.01.05.05.05.08.03.29.07.58.08.88.02.44.03.88.03,1.31,0,.3-.04.59-.06.88-.05.54-.14,1.07-.27,1.6,0,.01-.01.03-.02.05-.13-.1-.27-.19-.39-.29-.19-.15-.38-.31-.56-.46-.31-.26-.48-.6-.61-.97-.12-.34-.2-.69-.26-1.05-.11.35-.05.71-.04,1.07h-.01c-.42-.21-.8-.48-1.05-.89-.21-.34-.33-.71-.44-1.09-.03-.09-.05-.19-.07-.28,0-.02-.01-.03-.03-.04v.89c-.09-.07-.17-.13-.24-.2-.33-.29-.54-.67-.71-1.07-.1-.24-.2-.48-.3-.72,0-.02-.01-.04-.02-.05h-.02c0,.06,0,.11.01.17.07.45.16.9.34,1.32.2.45.52.79.93,1.05.05.03.08.07.11.13.13.32.33.59.6.81.25.2.5.4.79.53.06.03.12.04.18.07.03.01.06.04.07.06.22.35.45.7.74,1,.22.22.47.43.71.63.05.04.07.08.04.14-.42,1.3-1.06,2.47-1.91,3.54-.44.55-.92,1.06-1.45,1.53-1.15,1.02-2.42,1.84-3.86,2.41-.29.12-.6.18-.9.27-.08.02-.15.04-.23.06.18-.1.36-.2.55-.3.86-.48,1.68-1.03,2.44-1.66.63-.52,1.18-1.11,1.66-1.76.32-.43.64-.87.91-1.34.11-.19.21-.38.25-.6.01-.06,0-.12,0-.18-.01-.06-.05-.06-.08-.01s-.06.1-.08.15c-.26.51-.55.99-.9,1.45-.41.53-.87,1.01-1.36,1.46-.63.57-1.3,1.09-2.03,1.54-.98.6-2.01,1.09-3.11,1.4-.27.07-.55.12-.82.17-.07.01-.14.01-.21.02h-.63.01Z"></path><path fill="orange" d="M12.87,21.03c-.08-.15-.15-.29-.22-.43-.4-.8-.8-1.61-1.1-2.45-.1-.27-.18-.54-.25-.81-.08-.28-.04-.56.03-.84.09-.33.19-.66.28-.98.09-.34.14-.69.13-1.05-.02-.57-.17-1.12-.4-1.64-.13-.29-.28-.57-.42-.86-.01-.02-.01-.05,0-.08.06-.32.13-.63.17-.95.09-.73-.09-1.41-.47-2.04-.01-.02-.02-.03-.05-.04.02.09.05.17.07.26.09.35.14.71.14,1.07,0,.43-.05.84-.24,1.23-.11.23-.27.42-.46.58-.22.18-.41.37-.55.62-.16.29-.23.61-.2.94.03.27.15.5.33.7.02.02.04.06.04.09.01.19.02.37.03.56.01.21-.02.41-.09.6-.06.17-.13.33-.19.5-.04.1-.1.16-.2.19-.2.06-.39.13-.59.18-.29.07-.59.12-.89.13-.12,0-.22-.03-.31-.1-.35-.28-.69-.57-.97-.91-.06-.07-.09-.16-.11-.25-.23-.84-.45-1.68-.68-2.53-.09-.34-.17-.69-.28-1.03-.1-.31-.23-.62-.35-.93-.04-.1-.08-.2-.11-.31-.03-.1-.05-.2-.05-.3-.01-.29-.02-.58-.03-.88-.01-.4-.02-.79-.03-1.19,0-.05-.03-.05-.06-.06-.12-.04-.24-.08-.36-.11-.22-.06-.41-.19-.59-.32-.36-.26-.73-.52-1.09-.78,0,0-.02-.02-.03-.05h.41c.56,0,1.12-.09,1.66-.23.32-.08.63-.02.91.16.05.03.08.03.12,0,.81-.5,1.68-.86,2.6-1.07.32-.08.65-.13.98-.17.41-.06.82-.06,1.22-.04.98.06,1.93.26,2.83.66.58.25,1.11.57,1.58.98.39.34.73.71.99,1.16.03.05.03.07-.02.11-.48.45-.78,1.01-.91,1.66-.06.31-.08.63-.05.94.1.93.42,1.78,1.02,2.51.39.47.87.8,1.47.95.1.02.21.04.32.05q.1,0,.08.1c-.3,1.14-.73,2.21-1.4,3.18-.35.52-.78.97-1.23,1.4-.73.69-1.52,1.31-2.36,1.86-.02.01-.04.02-.06.04v.02ZM6.1,10.65c0-.08.02-.15.02-.22,0-.05.03-.06.08-.07.13-.02.26-.03.38-.07.13-.04.17-.12.12-.24-.07-.19-.16-.38-.24-.57-.01-.03-.04-.06-.06-.09-.01-.01-.05,0-.06,0-.02,0-.03.03-.04.05-.17.3-.25.63-.27.97,0,.08.02.15.08.23h-.01Z"></path><path fill="orange" d="M17,6.54c-.13-.21-.26-.4-.49-.51-.16-.08-.33-.12-.52-.13.02.03.03.05.04.06.2.26.3.56.34.88.03.32-.03.62-.07.95-.01-.02-.02-.03-.03-.03-.22-.43-.53-.78-.89-1.09-.8-.7-1.74-1.12-2.75-1.38-.37-.09-.74-.17-1.12-.23-.42-.07-.84-.11-1.27-.1-.84.02-1.65.17-2.44.44-.73.24-1.42.56-2.06.97-.01,0-.02.01-.05.03v-.27c.02-.29.07-.57.16-.85.08-.24.21-.45.39-.63.31-.3.6-.61.82-.98.11-.2.22-.4.3-.61.11-.3.1-.61-.02-.92.09.07.18.14.28.21.23.17.32.42.38.68.03.14.05.28.08.43,0,.02.01.04.02.06.13-.11.26-.22.39-.32.44-.34.92-.61,1.47-.73.18-.04.38-.06.56-.06.36-.02.77.04,1.11.13-.31.05-.58.17-.81.36-.23.19-.41.42-.47.72,0,0,.01,0,.02,0,.03-.05.07-.09.1-.14.27-.33.61-.53,1.02-.64.31-.08.62-.08.94-.06.41.04.81.14,1.19.31,0,0,.01,0,.02.02-.33,0-.65,0-.96.13h.19c.26,0,.52,0,.77.1.14.05.27.13.41.2.14.08.27.15.44.16.39.03.87-.17,1-.61.1.63-.08,1.12-.65,1.45,0,0,0,.01.01.02h.09c.37,0,.73.08,1.06.25.44.23.73.6.87,1.07.03.11.06.22.08.32.02.11.02.21.04.32h0Z"></path><path fill="orange" d="M1.14,16.97c.06.07.13.15.19.22.53.63,1.1,1.24,1.68,1.83,1.01,1.02,2.17,1.85,3.45,2.51.79.41,1.6.77,2.42,1.11.02,0,.03.01.07.03-.15.04-.28.07-.41.1-.44.1-.89.19-1.33.28-.1.02-.18.01-.27-.04-.95-.5-1.84-1.08-2.67-1.76-.78-.64-1.42-1.41-1.98-2.24-.42-.63-.8-1.28-1.13-1.95,0-.02-.02-.05-.03-.07h0v-.02Z"></path><path fill="orange" d="M10.87,22.09c-.19.07-.38.14-.57.21-.27.09-.55.16-.82.24-.04.01-.07,0-.1-.03-.37-.37-.75-.72-1.12-1.09-.67-.68-1.2-1.46-1.61-2.32,0-.02-.01-.03-.02-.05,1.28,1.19,2.71,2.18,4.24,3.03v.02h0Z"></path><path fill="orange" d="M9.84,19.63s.07.07.1.11c.44.51.9,1.01,1.45,1.4.2.14.42.27.63.41-.01,0-.03.02-.05.03-.28.13-.55.26-.83.39-.06.03-.09.02-.14-.04-.54-.68-.93-1.43-1.17-2.26v-.04h.02-.01Z"></path></svg>